<?xml version="1.0" encoding="UTF-8" standalone="no"?>
<!-- Created with Inkscape (http://www.inkscape.org/) -->

<svg
   xmlns:dc="http://purl.org/dc/elements/1.1/"
   xmlns:cc="http://creativecommons.org/ns#"
   xmlns:rdf="http://www.w3.org/1999/02/22-rdf-syntax-ns#"
   xmlns:svg="http://www.w3.org/2000/svg"
   xmlns="http://www.w3.org/2000/svg"
   xmlns:sodipodi="http://sodipodi.sourceforge.net/DTD/sodipodi-0.dtd"
   xmlns:inkscape="http://www.inkscape.org/namespaces/inkscape"
   width="468px"
   height="60px"
   id="svg2816"
   version="1.1"
   inkscape:version="0.47pre4 r22446"
   sodipodi:docname="logo.svg"
   inkscape:export-filename="/home/winnukem/top/top_webapp/images/logo.png"
   inkscape:export-xdpi="90"
   inkscape:export-ydpi="90">
  <defs
     id="defs2818">
    <inkscape:perspective
       sodipodi:type="inkscape:persp3d"
       inkscape:vp_x="0 : 30 : 1"
       inkscape:vp_y="0 : 1000 : 0"
       inkscape:vp_z="468 : 30 : 1"
       inkscape:persp3d-origin="234 : 20 : 1"
       id="perspective2824" />
  </defs>
  <sodipodi:namedview
     id="base"
     pagecolor="#ffffff"
     bordercolor="#666666"
     borderopacity="1.0"
     inkscape:pageopacity="0.0"
     inkscape:pageshadow="2"
     inkscape:zoom="1.6970563"
     inkscape:cx="154.39603"
     inkscape:cy="1.9435436"
     inkscape:document-units="px"
     inkscape:current-layer="layer1"
     showgrid="false"
     showguides="true"
     inkscape:guide-bbox="true"
     inkscape:window-width="715"
     inkscape:window-height="506"
     inkscape:window-x="0"
     inkscape:window-y="25"
     inkscape:window-maximized="0" />
  <metadata
     id="metadata2821">
    <rdf:RDF>
      <cc:Work
         rdf:about="">
        <dc:format>image/svg+xml</dc:format>
        <dc:type
           rdf:resource="http://purl.org/dc/dcmitype/StillImage" />
        <dc:title></dc:title>
      </cc:Work>
    </rdf:RDF>
  </metadata>
  <g
     id="layer1"
     inkscape:label="Layer 1"
     inkscape:groupmode="layer">
    <path
       id="path2835"
       style="font-size:56px;font-style:normal;font-variant:normal;font-weight:normal;font-stretch:normal;fill:#000000;fill-opacity:1;stroke:none;font-family:Liberation Serif;-inkscape-font-specification:Liberation Serif"
       d="m 16.585938,45.880207 c -1.750008,0 -3.062506,-0.519531 -3.9375,-1.558594 -0.856776,-1.03906 -1.285161,-2.497392 -1.285157,-4.375 l 0,-18.019531 -3.363281,0 0,-1.230469 3.417969,-1.066406 2.761719,-5.824219 1.722656,0 0,5.824219 5.878906,0 0,2.296875 -5.878906,0 0,17.527344 c -9e-6,1.1849 0.264314,2.078129 0.792969,2.679687 0.546865,0.601565 1.257802,0.902346 2.132812,0.902344 0.674467,2e-6 1.339831,-0.04557 1.996094,-0.136719 0.674465,-0.09114 1.294256,-0.191403 1.859375,-0.300781 l 0,1.777344 c -0.273453,0.182292 -0.638036,0.364584 -1.09375,0.546875 -0.437514,0.182292 -0.929701,0.337239 -1.476563,0.464844 -0.528658,0.145833 -1.093761,0.264322 -1.695312,0.355468 -0.601573,0.09115 -1.21225,0.136719 -1.832031,0.136719" />
    <path
       id="path2837"
       style="font-size:56px;font-style:normal;font-variant:normal;font-weight:normal;font-stretch:normal;fill:#000000;fill-opacity:1;stroke:none;font-family:Liberation Serif;-inkscape-font-specification:Liberation Serif"
       d="m 48.851563,32.345051 c -2.6e-5,4.356779 -0.975286,7.701828 -2.925782,10.035156 -1.950541,2.333334 -4.985695,3.5 -9.105468,3.5 -3.864594,0 -6.781257,-1.157551 -8.75,-3.472656 -1.968754,-2.315099 -2.953128,-5.669262 -2.953125,-10.0625 -3e-6,-4.338525 0.984371,-7.65623 2.953125,-9.953125 1.968743,-2.29685 4.958323,-3.445286 8.96875,-3.445313 3.901023,2.7e-5 6.845031,1.130234 8.832031,3.390625 1.986954,2.242209 2.980443,5.578143 2.980469,10.007813 m -4.921875,0 c -2.1e-5,-1.768215 -0.118511,-3.345036 -0.355469,-4.730469 -0.237,-1.403627 -0.638041,-2.579407 -1.203125,-3.527344 -0.546894,-0.966123 -1.27606,-1.695289 -2.1875,-2.1875 -0.911475,-0.510392 -2.032567,-0.7656 -3.363281,-0.765625 -1.348971,2.5e-5 -2.460949,0.255233 -3.335938,0.765625 -0.87501,0.492211 -1.567717,1.221377 -2.078125,2.1875 -0.510425,0.947937 -0.865893,2.123717 -1.066406,3.527344 -0.200528,1.385433 -0.300788,2.962254 -0.300781,4.730469 -7e-6,1.786469 0.100253,3.38152 0.300781,4.785156 0.200513,1.403653 0.555981,2.597662 1.066406,3.582031 0.510408,0.96615 1.203115,1.713545 2.078125,2.242188 0.874989,0.510418 1.986967,0.765626 3.335938,0.765625 1.330714,1e-6 2.451806,-0.255207 3.363281,-0.765625 0.91144,-0.528643 1.640606,-1.276038 2.1875,-2.242188 0.565084,-0.984369 0.966125,-2.178378 1.203125,-3.582031 0.236958,-1.403636 0.355448,-2.998687 0.355469,-4.785156" />
    <path
       id="path2839"
       style="font-size:56px;font-style:normal;font-variant:normal;font-weight:normal;font-stretch:normal;fill:#000000;fill-opacity:1;stroke:none;font-family:Liberation Serif;-inkscape-font-specification:Liberation Serif"
       d="m 53.140625,21.54427 -2.925781,-0.683594 0,-1.230469 7.21875,0 0.05469,1.503906 c 0.382804,-0.3281 0.829418,-0.619767 1.339844,-0.875 0.528636,-0.273412 1.093739,-0.501276 1.695313,-0.683593 0.60155,-0.200495 1.23957,-0.355443 1.914062,-0.464844 0.674465,-0.109349 1.358058,-0.164036 2.050781,-0.164063 1.60415,2.7e-5 3.044253,0.282578 4.320313,0.847657 1.27602,0.565129 2.360655,1.412784 3.253906,2.542968 0.893205,1.112001 1.567684,2.497417 2.023438,4.15625 0.473932,1.640643 0.710911,3.536474 0.710937,5.6875 -2.6e-5,2.096366 -0.237005,3.992197 -0.710937,5.6875 -0.473983,1.677089 -1.18492,3.117192 -2.132813,4.320313 -0.947939,1.184898 -2.141948,2.096355 -3.582031,2.734375 -1.421893,0.63802 -3.08986,0.957031 -5.003906,0.957031 -0.929701,0 -1.914075,-0.05469 -2.953125,-0.164062 -1.020844,-0.09115 -1.996104,-0.23698 -2.925782,-0.4375 0.01822,0.218749 0.03645,0.464843 0.05469,0.738281 0.03645,0.291666 0.05468,0.583332 0.05469,0.875 0.01822,0.309894 0.02734,0.592446 0.02734,0.847656 0.01822,0.255206 0.02734,0.464841 0.02734,0.628906 l 0,6.945313 4.484375,0.65625 0,1.285156 -12.25,0 0,-1.285156 3.253906,-0.65625 0,-33.769531 M 69.875,32.180988 c -2.1e-5,-1.85936 -0.154969,-3.445296 -0.464844,-4.757812 -0.309916,-1.312481 -0.765644,-2.378886 -1.367187,-3.199219 -0.583352,-0.83852 -1.303403,-1.449196 -2.160156,-1.832031 -0.856787,-0.382789 -1.822932,-0.574195 -2.898438,-0.574219 -0.875013,2.4e-5 -1.813814,0.08206 -2.816406,0.246094 -0.984385,0.145856 -1.822926,0.364606 -2.515625,0.65625 l 0,20.535156 c 0.765615,0.145835 1.613271,0.264325 2.542969,0.355469 0.929675,0.07292 1.859362,0.109376 2.789062,0.109375 2.406234,1e-6 4.156232,-0.993487 5.25,-2.980469 1.09373,-2.005202 1.640604,-4.858063 1.640625,-8.558594" />
    <path
       id="path2841"
       style="font-size:56px;font-style:normal;font-variant:normal;font-weight:normal;font-stretch:normal;fill:#000000;fill-opacity:1;stroke:none;font-family:Liberation Serif;-inkscape-font-specification:Liberation Serif"
       d="m 86.317188,42.817707 c -1e-5,0.455731 -0.09116,0.884116 -0.273438,1.285156 -0.164072,0.401043 -0.391936,0.756511 -0.683593,1.066407 -0.291676,0.291666 -0.647145,0.51953 -1.066407,0.683593 -0.401049,0.182291 -0.829434,0.273437 -1.285156,0.273438 -0.473965,-10e-7 -0.911464,-0.09115 -1.3125,-0.273438 C 81.295047,45.6888 80.948693,45.460936 80.657032,45.16927 80.365361,44.859374 80.128382,44.503906 79.946094,44.102863 79.782028,43.701823 79.699997,43.273438 79.7,42.817707 c -3e-6,-0.455726 0.08203,-0.884111 0.246094,-1.285156 0.182288,-0.419267 0.419267,-0.774735 0.710938,-1.066406 0.291661,-0.291662 0.638015,-0.519526 1.039062,-0.683594 0.401036,-0.182286 0.838535,-0.273432 1.3125,-0.273438 0.455722,6e-6 0.884107,0.09115 1.285156,0.273438 0.419262,0.164068 0.774731,0.391932 1.066407,0.683594 0.291657,0.291671 0.519521,0.647139 0.683593,1.066406 0.182282,0.401045 0.273428,0.82943 0.273438,1.285156" />
    <path
       id="path2843"
       style="font-size:56px;font-style:normal;font-variant:normal;font-weight:normal;font-stretch:normal;fill:#000000;fill-opacity:1;stroke:none;font-family:Liberation Serif;-inkscape-font-specification:Liberation Serif"
       d="m 100.10417,32.946613 10.52734,-11.347656 -2.67969,-0.738281 0,-1.230469 9.07813,0 0,1.230469 -3.19922,0.628906 -7.32813,7.492188 9.40625,14.492187 2.78907,0.628906 0,1.230469 -10.52735,0 0,-1.230469 2.35156,-0.683593 -7.05468,-11.074219 -3.36328,3.691406 0,7.382813 2.73437,0.683593 0,1.230469 -10.527344,0 0,-1.230469 3.253907,-0.683593 0,-35.0546879 -3.800782,-0.65625 0,-1.2304688 8.339849,0 0,26.4687497" />
    <path
       id="path2845"
       style="font-size:56px;font-style:normal;font-variant:normal;font-weight:normal;font-stretch:normal;fill:#000000;fill-opacity:1;stroke:none;font-family:Liberation Serif;-inkscape-font-specification:Liberation Serif"
       d="m 128.61228,21.708332 c 0.5104,-0.291643 1.11197,-0.601538 1.80469,-0.929687 0.71092,-0.328101 1.44009,-0.628882 2.1875,-0.902344 0.74738,-0.273412 1.50389,-0.492162 2.26953,-0.65625 0.76561,-0.182266 1.47654,-0.273411 2.13281,-0.273438 1.25779,2.7e-5 2.41534,0.237006 3.47266,0.710938 1.07549,0.473983 1.87758,1.230493 2.40625,2.269531 0.5833,-0.328101 1.28513,-0.66534 2.10546,-1.011719 0.82029,-0.364558 1.66795,-0.692683 2.54297,-0.984375 0.8932,-0.291641 1.7682,-0.52862 2.625,-0.710937 0.87497,-0.182266 1.65882,-0.273411 2.35157,-0.273438 0.98434,2.7e-5 1.87756,0.136745 2.67968,0.410157 0.80205,0.273463 1.48564,0.710962 2.05078,1.3125 0.5833,0.601586 1.02991,1.38544 1.33985,2.351562 0.32808,0.966167 0.49215,2.132833 0.49219,3.5 l 0,16.898438 3.30859,0.683593 0,1.230469 -11.67578,0 0,-1.230469 3.82812,-0.683593 0,-16.40625 c -3e-5,-1.513001 -0.34639,-2.670552 -1.03906,-3.472657 -0.67451,-0.82029 -1.78649,-1.230445 -3.33594,-1.230468 -0.47399,2.3e-5 -1.02997,0.03648 -1.66797,0.109375 -0.61982,0.07294 -1.24872,0.15497 -1.88671,0.246093 -0.61982,0.09117 -1.22138,0.200544 -1.80469,0.328125 -0.56513,0.109398 -1.03909,0.200543 -1.42188,0.273438 0.30987,0.984396 0.46482,2.06903 0.46485,3.253906 l 0,16.898438 3.85547,0.683593 0,1.230469 -12.19532,0 0,-1.230469 3.80078,-0.683593 0,-16.40625 c -2e-5,-1.513001 -0.39194,-2.670552 -1.17578,-3.472657 -0.76564,-0.82029 -1.92319,-1.230445 -3.47265,-1.230468 -0.51043,2.3e-5 -1.04819,0.02737 -1.61328,0.08203 -0.54689,0.05471 -1.09377,0.118512 -1.64063,0.191406 -0.52866,0.07294 -1.03907,0.164085 -1.53125,0.273438 -0.47397,0.09117 -0.87501,0.173199 -1.20312,0.246093 l 0,20.316407 3.85546,0.683593 0,1.230469 -11.64843,0 0,-1.230469 3.2539,-0.683593 0,-21.875 -3.2539,-0.683594 0,-1.230469 7.51953,0 0.21875,2.078125" />
    <path
       id="path2847"
       style="font-size:56px;font-style:normal;font-variant:normal;font-weight:normal;font-stretch:normal;fill:#000000;fill-opacity:1;stroke:none;font-family:Liberation Serif;-inkscape-font-specification:Liberation Serif"
       d="m 181.73516,18.946613 0,6.945313 -1.17579,0 -1.58593,-3.007813 c -0.51044,2.3e-5 -1.05731,0.03648 -1.64063,0.109375 -0.58335,0.07294 -1.16668,0.1732 -1.75,0.300782 -0.58334,0.109396 -1.14845,0.246115 -1.69531,0.410156 -0.52866,0.164084 -0.9935,0.337261 -1.39453,0.519531 l 0,19.195313 4.40234,0.683593 0,1.230469 -12.19531,0 0,-1.230469 3.25391,-0.683593 0,-21.875 -3.25391,-0.683594 0,-1.230469 7.49219,0 0.24609,3.199219 c 0.41926,-0.346332 0.99348,-0.738258 1.72266,-1.175781 0.72915,-0.455705 1.51301,-0.88409 2.35156,-1.285157 0.85676,-0.401016 1.70441,-0.738255 2.54297,-1.011718 0.85675,-0.273412 1.61326,-0.41013 2.26953,-0.410157 l 0.41016,0" />
    <path
       id="path2849"
       style="font-size:56px;font-style:normal;font-variant:normal;font-weight:normal;font-stretch:normal;fill:#000000;fill-opacity:1;stroke:none;font-family:Liberation Serif;-inkscape-font-specification:Liberation Serif"
       d="m 207.79938,32.345051 c -3e-5,4.356779 -0.97529,7.701828 -2.92578,10.035156 -1.95055,2.333334 -4.9857,3.5 -9.10547,3.5 -3.8646,0 -6.78126,-1.157551 -8.75,-3.472656 -1.96876,-2.315099 -2.95313,-5.669262 -2.95313,-10.0625 0,-4.338525 0.98437,-7.65623 2.95313,-9.953125 1.96874,-2.29685 4.95832,-3.445286 8.96875,-3.445313 3.90102,2.7e-5 6.84503,1.130234 8.83203,3.390625 1.98695,2.242209 2.98044,5.578143 2.98047,10.007813 m -4.92188,0 c -2e-5,-1.768215 -0.11851,-3.345036 -0.35547,-4.730469 -0.237,-1.403627 -0.63804,-2.579407 -1.20312,-3.527344 -0.5469,-0.966123 -1.27606,-1.695289 -2.1875,-2.1875 -0.91148,-0.510392 -2.03257,-0.7656 -3.36328,-0.765625 -1.34897,2.5e-5 -2.46095,0.255233 -3.33594,0.765625 -0.87501,0.492211 -1.56772,1.221377 -2.07812,2.1875 -0.51043,0.947937 -0.8659,2.123717 -1.06641,3.527344 -0.20053,1.385433 -0.30079,2.962254 -0.30078,4.730469 -1e-5,1.786469 0.10025,3.38152 0.30078,4.785156 0.20051,1.403653 0.55598,2.597662 1.06641,3.582031 0.5104,0.96615 1.20311,1.713545 2.07812,2.242188 0.87499,0.510418 1.98697,0.765626 3.33594,0.765625 1.33071,1e-6 2.4518,-0.255207 3.36328,-0.765625 0.91144,-0.528643 1.6406,-1.276038 2.1875,-2.242188 0.56508,-0.984369 0.96612,-2.178378 1.20312,-3.582031 0.23696,-1.403636 0.35545,-2.998687 0.35547,-4.785156" />
    <path
       id="path2851"
       style="font-size:56px;font-style:normal;font-variant:normal;font-weight:normal;font-stretch:normal;fill:#000000;fill-opacity:1;stroke:none;font-family:Liberation Serif;-inkscape-font-specification:Liberation Serif"
       d="m 233.47106,21.434895 -10.30859,24.445312 -2.02344,0 -10.58203,-24.335937 -2.625,-0.683594 0,-1.230469 11.97656,0 0,1.230469 -4.07422,0.738281 7.49219,17.746094 7.16406,-17.800781 -4.07421,-0.683594 0,-1.230469 9.51562,0 0,1.230469 -2.46094,0.574219" />
    <path
       id="path2853"
       style="font-size:56px;font-style:normal;font-variant:normal;font-weight:normal;font-stretch:normal;fill:#000000;fill-opacity:1;stroke:none;font-family:Liberation Serif;-inkscape-font-specification:Liberation Serif"
       d="m 241.63119,42.817707 c -1e-5,0.455731 -0.0912,0.884116 -0.27344,1.285156 -0.16407,0.401043 -0.39194,0.756511 -0.68359,1.066407 -0.29168,0.291666 -0.64715,0.51953 -1.06641,0.683593 -0.40105,0.182291 -0.82943,0.273437 -1.28515,0.273438 -0.47397,-10e-7 -0.91147,-0.09115 -1.3125,-0.273438 -0.40105,-0.164063 -0.74741,-0.391927 -1.03907,-0.683593 -0.29167,-0.309896 -0.52865,-0.665364 -0.71093,-1.066407 -0.16407,-0.40104 -0.2461,-0.829425 -0.2461,-1.285156 0,-0.455726 0.082,-0.884111 0.2461,-1.285156 0.18228,-0.419267 0.41926,-0.774735 0.71093,-1.066406 0.29166,-0.291662 0.63802,-0.519526 1.03907,-0.683594 0.40103,-0.182286 0.83853,-0.273432 1.3125,-0.273438 0.45572,6e-6 0.8841,0.09115 1.28515,0.273438 0.41926,0.164068 0.77473,0.391932 1.06641,0.683594 0.29165,0.291671 0.51952,0.647139 0.68359,1.066406 0.18228,0.401045 0.27343,0.82943 0.27344,1.285156" />
    <path
       id="path2855"
       style="font-size:56px;font-style:normal;font-variant:normal;font-weight:normal;font-stretch:normal;fill:#000000;fill-opacity:1;stroke:none;font-family:Liberation Serif;-inkscape-font-specification:Liberation Serif"
       d="m 264.47916,18.946613 0,6.945313 -1.17579,0 -1.58593,-3.007813 c -0.51044,2.3e-5 -1.05731,0.03648 -1.64063,0.109375 -0.58335,0.07294 -1.16668,0.1732 -1.75,0.300782 -0.58334,0.109396 -1.14845,0.246115 -1.69531,0.410156 -0.52866,0.164084 -0.9935,0.337261 -1.39453,0.519531 l 0,19.195313 4.40234,0.683593 0,1.230469 -12.19531,0 0,-1.230469 3.25391,-0.683593 0,-21.875 -3.25391,-0.683594 0,-1.230469 7.49219,0 0.24609,3.199219 c 0.41926,-0.346332 0.99348,-0.738258 1.72266,-1.175781 0.72915,-0.455705 1.51301,-0.88409 2.35156,-1.285157 0.85676,-0.401016 1.70441,-0.738255 2.54297,-1.011718 0.85675,-0.273412 1.61326,-0.41013 2.26953,-0.410157 l 0.41016,0" />
    <path
       id="path2857"
       style="font-size:56px;font-style:normal;font-variant:normal;font-weight:normal;font-stretch:normal;fill:#000000;fill-opacity:1;stroke:none;font-family:Liberation Serif;-inkscape-font-specification:Liberation Serif"
       d="m 275.0203,38.005207 c 0,1.513027 0.3372,2.679692 1.0117,3.5 0.6927,0.802086 1.8138,1.203128 3.3633,1.203125 1.0208,3e-6 2.0781,-0.0638 3.1719,-0.191406 1.0937,-0.145831 2.151,-0.36458 3.1719,-0.65625 l 0,-20.316406 -3.8828,-0.683594 0,-1.230469 8.3945,0 0,23.789063 3.2539,0.683593 0,1.230469 -7.4922,0 -0.2187,-2.078125 c -0.5287,0.291669 -1.1576,0.592449 -1.8868,0.902344 -0.7292,0.309897 -1.4948,0.592448 -2.2968,0.847656 -0.7839,0.255208 -1.5769,0.464844 -2.3789,0.628906 -0.8021,0.164062 -1.5313,0.246094 -2.1875,0.246094 -0.9844,0 -1.8777,-0.136719 -2.6797,-0.410156 -0.8021,-0.273438 -1.4948,-0.710937 -2.0782,-1.3125 -0.5651,-0.601561 -1.0117,-1.3763 -1.3398,-2.324219 -0.3099,-0.966141 -0.4648,-2.132807 -0.4648,-3.5 l 0,-16.789062 -3.2813,-0.683594 0,-1.230469 7.8203,0 0,18.375" />
    <text
       xml:space="preserve"
       style="font-size:40px;font-style:normal;font-variant:normal;font-weight:normal;font-stretch:normal;fill:#999999;fill-opacity:1;stroke:none;font-family:DejaVu Serif;-inkscape-font-specification:DejaVu Serif"
       x="294.16666"
       y="25"
       id="text2830"><tspan
         sodipodi:role="line"
         id="tspan2832"
         x="294.16666"
         y="25"
         style="font-size:32px">α</tspan></text>
  </g>
</svg>
